<svg t="1694834650247" class="icon" viewBox="0 0 1024 1024" version="1.1" xmlns="http://www.w3.org/2000/svg" p-id="6197" width="200" height="200"><path d="M353.28 403.456c167.936 0.512 335.36 0 503.296 0 39.424 0 60.416-21.504 60.416-60.928 0-72.704-1.024-144.896 0.512-217.6 1.024-37.888-23.04-64-64-64-188.416 0.512-377.344 0.512-565.76 0.512h-119.296c-34.816 0-58.368 22.528-58.368 56.32-0.512 76.8-0.512 153.6 0 230.4 0 33.28 23.552 55.808 56.832 55.808 31.744 0 62.976 0.512 94.72-0.512 12.288-0.512 16.896 2.048 16.384 15.36-1.024 33.792-0.512 67.584-0.512 101.376 0 25.088 0 25.088 25.088 25.088 129.536 0 258.56 0 388.096-0.512 11.776 0 14.336 3.072 13.312 13.824-1.024 15.36-1.024 30.72 0 46.08 1.024 12.288-3.584 14.336-14.848 14.336-173.056-0.512-345.6-0.512-518.656 0-39.424 0-61.44 21.504-61.44 60.928v222.72c0 36.352 22.016 57.856 58.368 57.856h689.152c38.4 0 59.392-20.992 59.392-58.88v-222.72c0-37.888-21.504-59.392-59.392-59.904-27.136 0-53.76-0.512-80.896 0-8.704 0-11.264-2.048-11.264-11.264 0.512-37.376 0-74.24 0.512-111.616 0-10.24-2.048-13.312-12.8-13.312-134.144 0.512-268.288 0-401.92 0.512-9.216 0-12.8-1.536-12.288-11.776 1.024-18.432 1.024-36.864 0-54.784 0.512-11.264 4.608-13.312 15.36-13.312z m489.984 276.48c9.728 0 12.8 2.048 12.8 12.288-0.512 65.024-0.512 129.536 0 194.56 0 8.704-1.024 12.288-11.264 12.288-220.672-0.512-441.344-0.512-661.504 0-8.704 0-11.264-1.536-11.264-10.752 0.512-65.536 0.512-131.584 0-197.12 0-9.216 2.56-10.752 11.264-10.752 110.592 0.512 221.184 0 331.264 0 109.056 0 218.624 0 328.704-0.512z m-659.968-337.408c-9.728 0-11.776-2.56-11.776-11.776 0.512-65.536 0.512-130.56 0-196.096 0-9.728 2.048-11.776 11.776-11.776 110.592 0.512 221.184 0 331.776 0 109.056 0 218.624 0 327.68-0.512 10.752 0 13.312 3.072 13.312 13.312-0.512 65.024-0.512 129.536 0 194.56 0 9.728-2.048 11.776-11.776 11.776-220.672 0-440.832 0-660.992 0.512z" p-id="6198" fill="#11BAAF"></path><path d="M513.536 263.168h-188.416c-21.504 0-34.816-11.776-34.816-30.208 0-18.432 13.824-31.232 34.816-31.232H701.44c21.504 0 34.816 11.776 34.816 30.72s-12.8 30.72-34.304 30.72h-188.416z" p-id="6199" fill="#1296db"></path><path d="M512 820.224h-189.44c-15.872 0-27.136-8.192-30.72-22.016-3.584-13.312 1.536-27.136 12.8-34.816 5.12-3.584 11.264-4.608 16.896-4.608 128 0 256-0.512 384 0 20.48 0 32.768 15.36 30.208 34.816-1.536 16.384-14.336 26.624-33.28 26.624H512z" fill="#11BAAF" p-id="6200"></path></svg>