<svg xmlns="http://www.w3.org/2000/svg" xmlns:xlink="http://www.w3.org/1999/xlink" fill="none" version="1.1" width="17.797657012939453" height="15.285268783569336" viewBox="0 0 17.797657012939453 15.285268783569336"><g><path d="M16.9383,9.63703L0.859375,9.63703C0.38457,9.63703,0,10.0216,0,10.4964C0,10.6769,0.0558593,10.8444,0.150391,10.9819C0.191211,11.0786,0.253516,11.1689,0.330859,11.2484L4.11855,15.0339C4.28613,15.2015,4.50527,15.2853,4.72656,15.2853C4.94785,15.2853,5.16699,15.2015,5.33457,15.0339C5.66973,14.6987,5.66973,14.1552,5.33457,13.8179L2.86816,11.3558L16.9361,11.3558C17.4109,11.3558,17.7955,10.9712,17.7955,10.4964C17.7955,10.0216,17.4131,9.63703,16.9383,9.63703ZM0.859375,5.64953L16.9383,5.64953C17.4131,5.64953,17.7977,5.26496,17.7977,4.79015C17.7977,4.60968,17.7418,4.4421,17.6473,4.3046C17.6172,4.23371,17.5742,4.16496,17.5227,4.1005L14.4246,0.314956C14.1238,-0.0524272,13.5824,-0.106138,13.215,0.194643C12.8477,0.495424,12.7939,1.03683,13.0947,1.40421L15.1637,3.93078L0.859375,3.93078C0.38457,3.93078,0,4.31535,0,4.79015C0,5.26496,0.38457,5.64953,0.859375,5.64953Z" fill="#333333" fill-opacity="1" style="mix-blend-mode:passthrough"/></g></svg>